<mxfile host="app.diagrams.net" modified="2023-04-21T06:25:41.597Z" agent="Mozilla/5.0 (Macintosh; Intel Mac OS X 10_15_7) AppleWebKit/537.36 (KHTML, like Gecko) Chrome/109.0.0.0 Safari/537.36" version="21.1.2" etag="DvHMOblxf-7FJjZqDXxQ" type="github">
  <diagram name="第 1 页" id="Uu_jYQCDvSzHSaH-Ch66">
    <mxGraphModel>
      <root>
        <mxCell id="0" />
        <mxCell id="1" parent="0" />
      </root>
    </mxGraphModel>
  </diagram>
</mxfile>
